<svg width="32" height="32" viewBox="0 0 32 32" fill="none" xmlns="http://www.w3.org/2000/svg">
<path d="M16.0001 0.640003C7.51694 0.640003 0.640137 7.5168 0.640137 16C0.640137 24.4832 7.51694 31.36 16.0001 31.36C24.4833 31.36 31.3601 24.4832 31.3601 16C31.3601 7.5168 24.4833 0.640003 16.0001 0.640003ZM12.9009 18.4L12.6561 18.8944C12.5425 19.1152 12.2785 19.2 12.1009 19.2H9.83854C9.43854 19.2 9.45614 18.8944 9.55374 18.6944L9.70094 18.4L11.5009 14.8L10.5009 12.8L10.3537 12.504C10.2561 12.304 10.2385 12 10.6385 12H12.9009C13.0785 12 13.3425 12.0848 13.4561 12.304L13.7009 12.8L14.7009 14.8L12.9009 18.4ZM22.4481 9.304L22.3009 9.6L18.3009 17.6L20.7009 22.4L20.8481 22.6944C20.9473 22.8944 20.9633 23.2 20.5633 23.2H18.3009C18.1217 23.2 17.8609 23.1152 17.7489 22.8944L17.5009 22.4L15.1009 17.6L19.1009 9.6L19.3489 9.104C19.4593 8.8832 19.7201 8.8 19.9009 8.8H22.1633C22.5633 8.8 22.5457 9.104 22.4481 9.304Z" fill="white"/>
</svg>
