<svg width="50" height="55" viewBox="0 0 50 55" fill="none" xmlns="http://www.w3.org/2000/svg">
<g clip-path="url(#clip0_50_345)">
<path d="M46.1309 51.9723C41.9681 54.3233 34.8259 54.9951 24.9471 54.9951C15.0682 54.9951 7.92605 54.3233 3.76327 51.9723C1.26451 50.5647 0 48.6462 0 47.2703C0 46.4864 0.41669 46.0387 1.34496 46.0387H48.5485C49.4774 46.0387 49.8935 46.4864 49.8935 47.2703C49.8941 48.6462 48.6296 50.5647 46.1309 51.9723ZM48.5485 15.5044H1.34496C0.41669 15.5044 0 15.0244 0 14.1607C0 9.042 7.70189 0.00512695 24.9471 0.00512695C42.0327 0.00512695 49.8941 9.042 49.8941 14.1607C49.8941 15.0244 49.4774 15.5044 48.5485 15.5044Z" fill="#4B4C51"/>
<path d="M0 26.1728V19.1191C0 18.1275 0.608532 17.391 1.87304 17.391H3.77909C5.79653 17.391 7.09335 18.4156 7.09335 20.3341C7.09335 21.1503 6.78943 21.7101 6.48551 22.0621C6.40575 22.1584 6.35693 22.19 6.35693 22.2698C6.35693 22.3344 6.43738 22.3977 6.51714 22.4623C6.70898 22.6219 7.55749 23.2772 7.55749 24.7013C7.55749 26.4761 6.26135 27.9001 4.13114 27.9001H1.87304C0.608532 27.9001 0 27.1644 0 26.1728ZM2.8185 21.2301C2.8185 21.4391 2.9464 21.5987 3.21869 21.5987H3.42635C4.11533 21.5987 4.32367 21.0548 4.32367 20.6711C4.32367 20.2544 4.11464 19.7751 3.42635 19.7751H3.21869C2.9464 19.7751 2.8185 19.9353 2.8185 20.143V21.2301ZM2.8185 25.1331C2.8185 25.3415 2.9464 25.501 3.21869 25.501H3.5068C4.27485 25.501 4.49901 24.9096 4.49901 24.4936C4.49901 24.0295 4.27554 23.5179 3.5068 23.5179H3.21869C2.9464 23.5179 2.8185 23.6781 2.8185 23.8857V25.1331ZM12.2648 27.9799C14.8592 27.9799 16.2365 26.4279 16.2365 24.4771V19.0874C16.2365 18.1275 15.6761 17.3594 14.6508 17.3594C13.6263 17.3594 13.0659 18.1275 13.0659 19.0874V24.3011C13.0659 24.6848 12.8417 25.1331 12.2648 25.1331C11.6886 25.1331 11.4961 24.6848 11.4961 24.3011V19.0874C11.4961 18.1275 10.9199 17.3594 9.89466 17.3594C8.86944 17.3594 8.30904 18.1275 8.30904 19.0874V24.4771C8.31042 26.4293 9.67119 27.9799 12.2648 27.9799ZM21.9367 27.0378C21.5042 26.4774 21.1205 25.3731 20.9761 24.5582C20.9438 24.3657 20.8806 24.2543 20.688 24.2543C20.5285 24.2543 20.4322 24.3506 20.4322 24.5582V26.2533C20.4322 27.2125 19.8718 27.9806 18.8466 27.9806C17.8214 27.9806 17.2617 27.2125 17.2617 26.2533V19.1191C17.2617 18.1268 17.8695 17.391 19.1347 17.391H20.9452C22.9784 17.391 24.6603 18.5428 24.6603 20.5748C24.6603 21.9177 24.0834 22.7656 23.587 23.1493C23.4426 23.2614 23.411 23.3735 23.4591 23.5014C23.6667 24.0611 24.0834 24.5892 24.5476 25.1964C24.8357 25.5643 25.0598 25.9638 25.0598 26.5084C25.0598 27.3239 24.3385 27.9799 23.5065 27.9799C22.9936 27.9799 22.4813 27.7557 21.9367 27.0378ZM21.76 20.9427C21.76 20.5267 21.5524 20.0467 20.8799 20.0467H20.6557C20.3827 20.0467 20.2548 20.2076 20.2548 20.4153V21.5017C20.2548 21.7101 20.3827 21.8696 20.6557 21.8696H20.8799C21.5524 21.8696 21.76 21.3422 21.76 20.9427ZM30.023 27.9964C32.5376 27.9964 34.1225 26.3963 34.1225 24.0618C34.1225 22.5744 33.2252 21.5505 31.4326 21.5505H30.9203C29.9748 21.5505 29.2391 21.9989 29.2391 23.0063C29.2391 23.9022 30.023 24.3341 30.6164 24.3341C30.9203 24.3341 31.1128 24.4303 31.1128 24.6538C31.1128 24.9419 30.7766 25.1338 30.3915 25.1338C29.191 25.1338 28.3741 24.2859 28.3741 22.7023C28.3741 20.9427 29.4956 20.3032 30.3599 20.3032C31.4168 20.3032 31.5928 20.8478 32.3292 20.8478C33.1784 20.8478 33.7546 20.1436 33.7546 19.4086C33.7546 18.864 33.514 18.4486 33.1468 18.1605C32.4736 17.664 31.5295 17.2968 30.1206 17.2968C27.6384 17.2968 25.22 18.9286 25.22 22.703C25.2194 26.3165 27.637 27.9964 30.023 27.9964ZM39.7746 27.9001C40.6713 27.9001 41.3761 27.372 41.3761 26.4128C41.3761 25.4687 40.6713 24.9406 39.7746 24.9406H38.3334C38.0611 24.9406 37.9332 24.781 37.9332 24.5727V24.2688C37.9332 24.0611 38.0611 23.9009 38.3334 23.9009H39.4384C40.2078 23.9009 40.8157 23.4374 40.8157 22.6212C40.8157 21.8057 40.2078 21.3415 39.4384 21.3415H38.3334C38.0611 21.3415 37.9332 21.1813 37.9332 20.9729V20.7171C37.9332 20.5095 38.0611 20.3492 38.3334 20.3492H39.7746C40.6713 20.3492 41.3761 19.8211 41.3761 18.8619C41.3761 17.9178 40.6713 17.3897 39.7746 17.3897H36.7485C35.484 17.3897 34.8754 18.1254 34.8754 19.1177V26.1707C34.8754 27.1623 35.484 27.8988 36.7485 27.8988H39.7746V27.9001ZM42.096 26.2539V19.1198C42.096 18.1275 42.7045 17.3924 43.969 17.3924H45.7788C47.8121 17.3924 49.4939 18.5442 49.4939 20.5755C49.4939 21.9191 48.917 22.767 48.4206 23.1507C48.2762 23.2621 48.2446 23.3741 48.2927 23.502C48.5004 24.0618 48.8366 24.5101 49.3812 25.1977C49.6693 25.5649 49.8934 25.9645 49.8934 26.5091C49.8934 27.3253 49.1721 27.9806 48.3401 27.9806C47.8279 27.9806 47.3156 27.7571 46.771 27.0365C46.3385 26.4761 45.9548 25.3724 45.8104 24.5569C45.7788 24.365 45.7149 24.2536 45.5223 24.2536C45.3628 24.2536 45.2665 24.3492 45.2665 24.5569V26.2526C45.2665 27.2118 44.7061 27.9799 43.6809 27.9799C42.6564 27.9799 42.096 27.2125 42.096 26.2539ZM45.0905 21.5024C45.0905 21.7108 45.2184 21.871 45.4907 21.871H45.7149C46.388 21.871 46.5957 21.3429 46.5957 20.9427C46.5957 20.5267 46.388 20.0467 45.7149 20.0467H45.4907C45.2184 20.0467 45.0905 20.2076 45.0905 20.4153V21.5024ZM10.0556 36.6179C9.91117 36.3938 9.89535 36.2494 9.89535 36.1861C9.89535 36.0101 9.99162 35.8822 10.1835 35.7061C10.6318 35.2901 11.7368 34.2504 12.3453 33.307C12.8087 32.587 13.0013 31.9317 13.0013 31.3885C13.0013 29.9967 11.7368 28.9089 10.3595 28.9089C9.47866 28.9089 8.64597 29.4047 8.08626 30.3165C7.33333 31.5315 6.436 32.9391 5.86047 33.4995C5.71608 33.6439 5.63631 33.6756 5.52492 33.6756C5.33239 33.6756 5.25263 33.5477 5.25263 33.34V31.7399C5.25263 30.1728 4.32367 28.9089 2.64179 28.9089C0.944772 28.9089 0.0316299 30.1721 0.0316299 31.7399V41.593C0.0316299 43.1601 0.944084 44.4246 2.64179 44.4246C4.32367 44.4246 5.25263 43.1615 5.25263 41.593V39.3224C5.25263 39.1299 5.33239 38.9868 5.52492 38.9868C5.78071 38.9868 5.84535 39.2426 5.90861 39.3705C6.27716 40.25 7.34983 42.1211 8.34274 43.2247C9.0159 43.9605 9.84791 44.4246 10.7287 44.4246C12.2181 44.4246 13.4675 43.1285 13.4675 41.7374C13.4675 40.8737 13.0982 40.2335 12.3941 39.4661C11.4968 38.489 10.4399 37.2093 10.0556 36.6179ZM17.3573 28.9075C15.564 28.9075 14.5869 30.2512 14.5869 31.9304V41.3997C14.5869 43.0796 15.564 44.4233 17.3573 44.4233C19.1499 44.4233 20.1269 43.0796 20.1269 41.3997V31.9304C20.1269 30.2518 19.1512 28.9075 17.3573 28.9075ZM32.7129 28.9075C31.0633 28.9075 30.1667 30.1391 30.1667 31.6911V35.1457C30.1667 35.4332 30.0704 35.5617 29.8944 35.5617C29.7665 35.5617 29.6702 35.482 29.5582 35.2585L27.3331 30.9395C26.4846 29.2912 25.6037 28.9075 24.595 28.9075C22.9131 28.9075 21.9849 30.1714 21.9849 31.755V41.6404C21.9849 43.1924 22.8815 44.424 24.5304 44.424C26.1799 44.424 27.0766 43.1924 27.0766 41.6404V38.1857C27.0766 37.8983 27.1722 37.7697 27.3489 37.7697C27.4768 37.7697 27.573 37.8495 27.6844 38.0737L29.9102 42.392C30.7587 44.0403 31.6712 44.424 32.6483 44.424C34.3295 44.424 35.2584 43.1608 35.2584 41.5772V31.6911C35.2584 30.1391 34.3625 28.9075 32.7129 28.9075ZM45.8269 35.066H45.0424C43.6328 35.066 42.5443 35.722 42.5443 37.1612C42.5443 38.4725 43.7291 39.0962 44.6099 39.0962C45.0424 39.0962 45.3463 39.2241 45.3463 39.5596C45.3463 39.9763 44.834 40.2473 44.2894 40.2473C42.4804 40.2473 41.2468 39.0157 41.2468 36.7287C41.2468 34.1851 42.9287 33.2575 44.2248 33.2575C45.8104 33.2575 46.0662 34.0572 47.1712 34.0572C48.4522 34.0572 49.3165 33.0182 49.3165 31.9627C49.3165 31.1788 48.9645 30.5709 48.4041 30.1549C47.4277 29.4349 45.9548 28.9068 43.8728 28.9068C40.1418 28.9068 36.5071 31.2578 36.5071 36.7287C36.5071 41.9588 40.1411 44.4061 43.7284 44.4061C47.4909 44.4061 49.8769 42.0867 49.8769 38.696C49.8776 36.5533 48.5334 35.066 45.8269 35.066Z" fill="#4B4C51"/>
</g>
<defs>
<clipPath id="clip0_50_345">
<rect width="49.8941" height="55" fill="white"/>
</clipPath>
</defs>
</svg>
