<svg width="346" height="51" viewBox="0 0 346 51" fill="none" xmlns="http://www.w3.org/2000/svg">
<rect x="31" width="26" height="51" fill="#4B4C51"/>
<circle cx="23.5" cy="25.5" r="23.5" fill="#FF3D4C"/>
<path d="M74.416 16.932V24.168H84.28V28.2H74.416V39H69.952V12.72H74.416H86.152V16.932H74.416ZM98.5818 39C98.4618 38.496 98.3658 37.824 98.2938 36.984C97.7898 37.728 97.0698 38.328 96.1338 38.784C95.2218 39.24 94.1178 39.468 92.8218 39.468C90.8778 39.468 89.3178 38.964 88.1418 37.956C86.9658 36.924 86.3778 35.508 86.3778 33.708C86.3778 31.956 86.9538 30.6 88.1058 29.64C89.2578 28.656 90.8418 28.164 92.8578 28.164H98.1858V27.48C98.1858 26.328 97.8498 25.488 97.1778 24.96C96.5298 24.432 95.6298 24.168 94.4778 24.168C92.4138 24.168 90.9258 25.032 90.0138 26.76L86.9178 24.96C87.6858 23.496 88.7418 22.428 90.0858 21.756C91.4298 21.06 92.9658 20.712 94.6938 20.712C96.9258 20.712 98.7618 21.288 100.202 22.44C101.642 23.592 102.362 25.464 102.362 28.056V35.112C102.362 37.128 102.47 38.424 102.686 39H98.5818ZM98.2218 31.116H93.8298C92.8218 31.116 92.0418 31.344 91.4898 31.8C90.9618 32.256 90.6978 32.88 90.6978 33.672C90.6978 34.512 90.9738 35.148 91.5258 35.58C92.1018 36.012 92.9058 36.228 93.9378 36.228C95.1138 36.228 96.1218 35.856 96.9618 35.112C97.8018 34.344 98.2218 33.144 98.2218 31.512V31.116ZM114.504 21C115.296 21 115.992 21.084 116.592 21.252V25.176C115.944 25.008 115.284 24.924 114.612 24.924C113.1 24.924 111.924 25.392 111.084 26.328C110.268 27.264 109.86 28.56 109.86 30.216V39H105.54V21.252H109.5L109.752 23.34C110.112 22.572 110.724 21.996 111.588 21.612C112.452 21.204 113.424 21 114.504 21ZM118.485 15.096C118.485 14.328 118.749 13.692 119.277 13.188C119.805 12.66 120.441 12.396 121.185 12.396C121.929 12.396 122.553 12.66 123.057 13.188C123.585 13.716 123.849 14.352 123.849 15.096C123.849 15.84 123.585 16.476 123.057 17.004C122.553 17.532 121.929 17.796 121.185 17.796C120.441 17.796 119.805 17.532 119.277 17.004C118.749 16.476 118.485 15.84 118.485 15.096ZM123.309 21.252V39H119.061V21.252H123.309ZM141.092 39C141.044 38.616 140.996 38.232 140.948 37.848C140.9 37.44 140.852 37.032 140.804 36.624C140.228 37.536 139.4 38.244 138.32 38.748C137.264 39.228 136.088 39.468 134.792 39.468C133.496 39.468 132.308 39.264 131.228 38.856C130.172 38.424 129.248 37.812 128.456 37.02C127.688 36.228 127.088 35.256 126.656 34.104C126.224 32.928 126.008 31.596 126.008 30.108C126.008 28.716 126.224 27.444 126.656 26.292C127.112 25.14 127.736 24.156 128.528 23.34C129.32 22.5 130.256 21.852 131.336 21.396C132.44 20.94 133.64 20.712 134.936 20.712C136.088 20.712 137.192 20.94 138.248 21.396C139.304 21.828 140.144 22.464 140.768 23.304V12.252H145.016V34.536C145.016 35.16 145.052 36 145.124 37.056C145.196 38.064 145.268 38.712 145.34 39H141.092ZM140.588 30.072C140.588 28.416 140.12 27.084 139.184 26.076C138.248 25.068 137.012 24.564 135.476 24.564C133.94 24.564 132.692 25.068 131.732 26.076C130.796 27.084 130.328 28.416 130.328 30.072C130.328 31.728 130.796 33.06 131.732 34.068C132.692 35.076 133.94 35.58 135.476 35.58C137.012 35.58 138.248 35.076 139.184 34.068C140.12 33.06 140.588 31.728 140.588 30.072ZM181.281 23.952V39H177.429L177.213 36.048C176.397 37.128 175.257 37.956 173.793 38.532C172.329 39.108 170.769 39.396 169.113 39.396C167.289 39.396 165.621 39.06 164.109 38.388C162.597 37.716 161.301 36.792 160.221 35.616C159.141 34.416 158.301 32.988 157.701 31.332C157.125 29.676 156.837 27.876 156.837 25.932C156.837 23.94 157.137 22.116 157.737 20.46C158.361 18.78 159.237 17.34 160.365 16.14C161.517 14.916 162.885 13.968 164.469 13.296C166.053 12.6 167.817 12.252 169.761 12.252C172.545 12.252 174.921 12.9 176.889 14.196C178.929 15.516 180.321 17.256 181.065 19.416L177.069 21.072C176.493 19.488 175.557 18.324 174.261 17.58C172.965 16.812 171.477 16.428 169.797 16.428C168.501 16.428 167.325 16.656 166.269 17.112C165.237 17.568 164.361 18.216 163.641 19.056C162.921 19.896 162.357 20.916 161.949 22.116C161.565 23.292 161.373 24.6 161.373 26.04C161.373 27.504 161.577 28.812 161.985 29.964C162.393 31.092 162.957 32.052 163.677 32.844C164.397 33.612 165.249 34.2 166.233 34.608C167.241 35.016 168.333 35.22 169.509 35.22C171.333 35.22 172.989 34.764 174.477 33.852C175.989 32.94 176.877 31.404 177.141 29.244V27.876H169.077V23.952H181.281ZM192.993 20.748C194.361 20.748 195.609 20.976 196.737 21.432C197.865 21.888 198.837 22.536 199.653 23.376C200.469 24.192 201.093 25.176 201.525 26.328C201.981 27.48 202.209 28.74 202.209 30.108C202.209 31.476 201.981 32.736 201.525 33.888C201.093 35.016 200.469 36 199.653 36.84C198.837 37.656 197.865 38.292 196.737 38.748C195.609 39.204 194.361 39.432 192.993 39.432C191.625 39.432 190.365 39.204 189.213 38.748C188.085 38.292 187.113 37.656 186.297 36.84C185.481 36 184.845 35.016 184.389 33.888C183.957 32.736 183.741 31.476 183.741 30.108C183.741 28.74 183.957 27.48 184.389 26.328C184.845 25.176 185.481 24.192 186.297 23.376C187.113 22.536 188.085 21.888 189.213 21.432C190.365 20.976 191.625 20.748 192.993 20.748ZM192.993 35.616C194.457 35.616 195.633 35.112 196.521 34.104C197.433 33.072 197.889 31.728 197.889 30.072C197.889 28.416 197.433 27.084 196.521 26.076C195.633 25.068 194.457 24.564 192.993 24.564C191.481 24.564 190.269 25.068 189.357 26.076C188.469 27.084 188.025 28.416 188.025 30.072C188.025 31.728 188.469 33.072 189.357 34.104C190.269 35.112 191.481 35.616 192.993 35.616ZM204.802 12.252H209.05V39H204.802V12.252ZM226.627 39C226.579 38.616 226.531 38.232 226.483 37.848C226.435 37.44 226.387 37.032 226.339 36.624C225.763 37.536 224.935 38.244 223.855 38.748C222.799 39.228 221.623 39.468 220.327 39.468C219.031 39.468 217.843 39.264 216.763 38.856C215.707 38.424 214.783 37.812 213.991 37.02C213.223 36.228 212.623 35.256 212.191 34.104C211.759 32.928 211.543 31.596 211.543 30.108C211.543 28.716 211.759 27.444 212.191 26.292C212.647 25.14 213.271 24.156 214.063 23.34C214.855 22.5 215.791 21.852 216.871 21.396C217.975 20.94 219.175 20.712 220.471 20.712C221.623 20.712 222.727 20.94 223.783 21.396C224.839 21.828 225.679 22.464 226.303 23.304V12.252H230.551V34.536C230.551 35.16 230.587 36 230.659 37.056C230.731 38.064 230.803 38.712 230.875 39H226.627ZM226.123 30.072C226.123 28.416 225.655 27.084 224.719 26.076C223.783 25.068 222.547 24.564 221.011 24.564C219.475 24.564 218.227 25.068 217.267 26.076C216.331 27.084 215.863 28.416 215.863 30.072C215.863 31.728 216.331 33.06 217.267 34.068C218.227 35.076 219.475 35.58 221.011 35.58C222.547 35.58 223.783 35.076 224.719 34.068C225.655 33.06 226.123 31.728 226.123 30.072ZM261.613 27.696V39H257.473V28.344C257.473 27.096 257.149 26.136 256.501 25.464C255.877 24.768 255.025 24.42 253.945 24.42C252.793 24.42 251.869 24.792 251.173 25.536C250.477 26.28 250.129 27.348 250.129 28.74V39H245.953V28.344C245.953 27.096 245.641 26.136 245.017 25.464C244.393 24.768 243.541 24.42 242.461 24.42C241.309 24.42 240.373 24.792 239.653 25.536C238.957 26.28 238.609 27.348 238.609 28.74V39H234.361V21.252H238.321L238.465 22.944C239.497 21.432 241.177 20.676 243.505 20.676C244.873 20.676 246.049 20.964 247.033 21.54C248.017 22.092 248.773 22.908 249.301 23.988C249.733 22.956 250.441 22.152 251.425 21.576C252.433 20.976 253.633 20.676 255.025 20.676C257.041 20.676 258.637 21.288 259.813 22.512C261.013 23.736 261.613 25.464 261.613 27.696ZM276.191 39C276.071 38.496 275.975 37.824 275.903 36.984C275.399 37.728 274.679 38.328 273.743 38.784C272.831 39.24 271.727 39.468 270.431 39.468C268.487 39.468 266.927 38.964 265.751 37.956C264.575 36.924 263.987 35.508 263.987 33.708C263.987 31.956 264.563 30.6 265.715 29.64C266.867 28.656 268.451 28.164 270.467 28.164H275.795V27.48C275.795 26.328 275.459 25.488 274.787 24.96C274.139 24.432 273.239 24.168 272.087 24.168C270.023 24.168 268.535 25.032 267.623 26.76L264.527 24.96C265.295 23.496 266.351 22.428 267.695 21.756C269.039 21.06 270.575 20.712 272.303 20.712C274.535 20.712 276.371 21.288 277.811 22.44C279.251 23.592 279.971 25.464 279.971 28.056V35.112C279.971 37.128 280.079 38.424 280.295 39H276.191ZM275.831 31.116H271.439C270.431 31.116 269.651 31.344 269.099 31.8C268.571 32.256 268.307 32.88 268.307 33.672C268.307 34.512 268.583 35.148 269.135 35.58C269.711 36.012 270.515 36.228 271.547 36.228C272.723 36.228 273.731 35.856 274.571 35.112C275.411 34.344 275.831 33.144 275.831 31.512V31.116ZM299.889 28.056V39H295.641V28.956C295.641 27.252 295.245 26.1 294.453 25.5C293.685 24.876 292.797 24.564 291.789 24.564C291.213 24.564 290.661 24.66 290.133 24.852C289.629 25.02 289.173 25.296 288.765 25.68C288.381 26.064 288.069 26.544 287.829 27.12C287.589 27.672 287.469 28.332 287.469 29.1V39H283.221V21.252H287.217L287.361 23.16C287.865 22.416 288.585 21.828 289.521 21.396C290.481 20.94 291.537 20.712 292.689 20.712C294.993 20.712 296.769 21.348 298.017 22.62C299.265 23.868 299.889 25.68 299.889 28.056ZM320.013 28.056V39H315.765V28.956C315.765 27.252 315.369 26.1 314.577 25.5C313.809 24.876 312.921 24.564 311.913 24.564C311.337 24.564 310.785 24.66 310.257 24.852C309.753 25.02 309.297 25.296 308.889 25.68C308.505 26.064 308.193 26.544 307.953 27.12C307.713 27.672 307.593 28.332 307.593 29.1V39H303.345V21.252H307.341L307.485 23.16C307.989 22.416 308.709 21.828 309.645 21.396C310.605 20.94 311.661 20.712 312.813 20.712C315.117 20.712 316.893 21.348 318.141 22.62C319.389 23.868 320.013 25.68 320.013 28.056ZM323.576 36.768C323.576 35.976 323.852 35.304 324.404 34.752C324.956 34.2 325.628 33.924 326.42 33.924C327.212 33.924 327.884 34.2 328.436 34.752C329.012 35.304 329.3 35.976 329.3 36.768C329.3 37.512 329.012 38.172 328.436 38.748C327.86 39.3 327.188 39.576 326.42 39.576C325.628 39.576 324.956 39.3 324.404 38.748C323.852 38.196 323.576 37.536 323.576 36.768Z" fill="white"/>
</svg>
