<svg width="116" height="55" viewBox="0 0 116 55" fill="none" xmlns="http://www.w3.org/2000/svg">
<path d="M0 25.3515C0.164784 24.4895 0.291542 23.6149 0.507029 22.7656C1.91404 17.0996 6.60405 12.8152 12.3462 11.9152C20.3192 10.673 27.7472 15.8193 29.2049 23.767C30.764 32.2978 24.8951 39.6243 17.3911 40.9172C13.0687 41.6651 9.21526 40.7398 6.09703 37.4821C6.0083 37.3934 5.90689 37.3427 5.67873 37.1779C5.67873 40.2328 5.67873 43.1735 5.67873 46.1016C5.67873 49.0297 5.67873 51.9578 5.67873 55C3.75201 55 1.87601 55 0 55C0 45.1256 0 35.2385 0 25.3515ZM23.8557 26.4289C23.8557 21.1178 19.8629 17.0869 14.6024 17.0996C9.53215 17.1122 5.5393 21.2192 5.5393 26.4416C5.5393 31.6893 9.53215 35.7836 14.6531 35.7836C19.9516 35.7836 23.8557 31.8034 23.8557 26.4289Z" fill="#4B4C51"/>
<path d="M107.87 0C106.73 2.76331 105.576 5.51395 104.461 8.28993C104.258 8.78428 104.042 8.93639 103.497 8.88568C101.887 8.73358 100.265 8.65751 98.541 8.53076C99.7706 5.62802 100.975 2.81401 102.166 0C104.068 0 105.969 0 107.87 0Z" fill="#4B4C51"/>
<path d="M114.905 28.5077C107.224 28.5077 99.5804 28.5077 91.8736 28.5077C92.1398 30.5865 92.9637 32.3104 94.4848 33.6794C97.7932 36.6455 103.573 36.5061 106.78 33.4259C106.996 33.2231 107.313 33.0076 107.591 33.0076C109.67 32.9696 111.749 32.9822 113.879 32.9822C111.052 38.9398 103.396 43.0848 95.5115 40.3088C87.9948 37.6596 84.0653 29.2176 86.7526 21.4727C89.3638 13.9179 97.5143 9.91241 105.145 12.4856C113.372 15.2489 115.983 22.905 114.905 28.5077ZM109.049 23.9191C108.872 20.3319 104.22 16.8841 99.91 17.1122C96.158 17.3024 91.8989 20.9656 92.051 23.9191C97.7171 23.9191 103.383 23.9191 109.049 23.9191Z" fill="#4B4C51"/>
<path d="M57.2817 12.194C59.1577 12.194 60.9323 12.1687 62.7069 12.2194C62.9224 12.2194 63.214 12.5616 63.3154 12.8025C64.6717 16.1869 65.99 19.584 67.3209 22.9811C68.6138 26.2768 69.9194 29.5725 71.225 32.8555C71.2884 33.0076 71.3645 33.147 71.5039 33.4132C71.6433 33.109 71.7321 32.9062 71.8081 32.7034C74.4193 26.1373 77.0305 19.584 79.6291 13.0179C79.8699 12.3968 80.1741 12.1307 80.8713 12.156C82.4684 12.2067 84.0782 12.1687 85.7641 12.1687C85.65 12.4729 85.5613 12.7264 85.4726 12.9672C81.8219 22.0177 78.1587 31.0682 74.5207 40.1187C74.3433 40.5496 74.1151 40.6764 73.6841 40.6764C72.2011 40.651 70.7307 40.651 69.2476 40.6764C68.8166 40.6891 68.6138 40.537 68.4617 40.1313C64.8111 31.0175 61.1478 21.9036 57.4845 12.7898C57.4085 12.6504 57.3578 12.4729 57.2817 12.194Z" fill="#4B4C51"/>
<path d="M38.1286 40.6511C36.2653 40.6511 34.4907 40.6511 32.602 40.6511C32.602 40.4229 32.602 40.1948 32.602 39.9793C32.602 35.1245 32.5767 30.257 32.6147 25.4022C32.6401 22.8163 32.9823 20.2558 34.2245 17.9235C36.1005 14.3996 39.092 12.5363 43.0342 12.1941C43.3764 12.1687 43.706 12.1307 44.0482 12.1053C44.3651 12.0927 44.682 12.1053 45.0496 12.1053C45.075 12.2574 45.113 12.4222 45.1257 12.5743C45.1257 14.0067 45.113 15.4517 45.1383 16.8841C45.1383 17.3024 45.0242 17.4672 44.5679 17.4798C41.0948 17.5559 38.9399 19.4446 38.4075 22.9684C38.2174 24.2107 38.1793 25.4909 38.1667 26.7458C38.1286 31.1443 38.1413 35.5301 38.1286 39.9286C38.1286 40.1567 38.1286 40.3849 38.1286 40.6511Z" fill="#4B4C51"/>
<path d="M54.7719 12.2574C54.7719 21.7515 54.7719 31.195 54.7719 40.6764C52.9593 40.6764 51.1847 40.6764 49.3721 40.6764C49.3721 31.195 49.3721 21.7515 49.3721 12.2574C51.1593 12.2574 52.9339 12.2574 54.7719 12.2574Z" fill="#4B4C51"/>
<path d="M52.0593 1.39435C53.9734 1.39435 55.4057 2.83938 55.393 4.77876C55.3804 6.70547 53.9353 8.18854 52.0593 8.18854C50.1453 8.17586 48.6749 6.66745 48.6876 4.74074C48.6876 2.80135 50.1073 1.39435 52.0593 1.39435Z" fill="#4B4C51"/>
</svg>
