<svg width="108" height="55" viewBox="0 0 108 55" fill="none" xmlns="http://www.w3.org/2000/svg">
<g clip-path="url(#clip0_50_339)">
<path d="M92.3901 0.636139H106.688V14.9238L92.3901 0.636139Z" fill="#4B4C51"/>
<path d="M92.3901 0.636139H106.688V14.9238L92.3901 0.636139Z" stroke="#4B4C51" stroke-width="1.25" stroke-linejoin="round"/>
<path d="M43.2164 46.5486C43.196 47.3455 42.8703 48.1042 42.3066 48.6679C41.7429 49.2316 40.9842 49.5573 40.1873 49.5778H31.0997C30.2963 49.5778 29.5258 49.2586 28.9577 48.6905C28.3896 48.1224 28.0705 47.352 28.0705 46.5486V45.872C28.0909 45.0751 28.4166 44.3164 28.9804 43.7527C29.5441 43.189 30.3027 42.8633 31.0997 42.8429H40.1873C40.9842 42.8633 41.7429 43.189 42.3066 43.7527C42.8703 44.3164 43.196 45.0751 43.2164 45.872V46.5486ZM40.1873 21.5174C40.1873 23.1241 39.549 24.6651 38.4128 25.8013C37.2766 26.9374 35.7357 27.5757 34.1289 27.5757C32.5221 27.5757 30.9811 26.9374 29.8449 25.8013C28.7088 24.6651 28.0705 23.1241 28.0705 21.5174V20.9014C28.0705 19.2946 28.7088 17.7537 29.8449 16.6175C30.9811 15.4813 32.5221 14.843 34.1289 14.843C35.7357 14.843 37.2766 15.4813 38.4128 16.6175C39.549 17.7537 40.1873 19.2946 40.1873 20.9014V21.5174ZM49.2748 46.5486V45.872C49.2748 41.0859 45.559 37.4408 40.1873 37.4408H32.2205C31.0088 36.8955 30.403 36.2291 30.403 35.1487C30.403 34.2702 31.0088 33.523 32.1498 32.8465C33.0283 32.9172 33.7048 32.9879 34.1087 32.9879C41.1768 32.9879 46.2254 27.9897 46.2254 21.5174V10.1175C46.2254 9.64292 46.0235 9.44098 45.5489 9.44098H41.5403C41.0657 9.44098 40.8638 9.64292 40.8638 10.1175V10.9253C40.8638 11.3999 40.6618 11.6725 40.3993 11.6725C39.4501 11.6725 37.4913 9.44098 34.1188 9.44098C27.0507 9.44098 22.002 14.4896 22.002 20.9115V21.5274C21.9386 23.6622 22.5537 25.7621 23.7589 27.5252C25.3846 29.5548 26.3943 30.4939 26.3943 30.7665C26.3943 31.2411 25.112 32.3921 25.112 35.1588C25.112 37.047 26.051 38.2587 26.051 38.8645C26.051 39.4704 25.0413 39.9449 23.557 41.4999C22.5348 42.7297 21.9836 44.2831 22.002 45.8821V46.5486C22.002 51.4054 25.7178 54.9899 31.0896 54.9899H40.1772C45.5792 55 49.295 51.3549 49.295 46.5486H49.2748Z" fill="#4B4C51"/>
<path d="M93.8241 39.1371V20.962C93.8818 19.4378 93.625 17.9181 93.0696 16.4976C92.5142 15.077 91.6722 13.7861 90.5961 12.7052C89.5199 11.6243 88.2327 10.7767 86.8146 10.2151C85.3965 9.65347 83.8779 9.38996 82.3535 9.44097C80.3141 9.35176 78.294 9.86822 76.5476 10.9253C74.9926 11.935 74.3161 12.8236 73.9829 12.8236C73.1182 12.2612 72.2856 11.6511 71.4889 10.996C69.9238 9.92068 68.0552 9.37566 66.1575 9.44097C62.9162 9.44097 60.8261 11.7331 59.877 11.7331C59.6043 11.7331 59.4024 11.4705 59.4024 10.996V10.1175C59.4024 9.64292 59.2004 9.44097 58.736 9.44097H54.6668C54.1922 9.44097 53.9902 9.64292 53.9902 10.1175V39.1371C53.9902 39.6117 54.1922 39.8137 54.6668 39.8137H59.3822C59.8568 39.8137 60.0587 39.6117 60.0587 39.1371V20.962C60.0587 17.7309 62.7648 14.9036 65.4608 14.9036C68.1567 14.9036 70.8628 17.6703 70.8628 20.962V39.1371C70.8628 39.6117 71.0648 39.8137 71.5292 39.8137H76.275C76.7495 39.8137 76.9515 39.6117 76.9515 39.1371V20.962C76.9515 17.7914 79.6576 14.9036 82.3535 14.9036C85.0495 14.9036 87.7455 17.6703 87.7455 20.962V39.1371C87.7455 39.6117 87.9475 39.8137 88.422 39.8137H93.1476C93.6221 39.8137 93.8241 39.6117 93.8241 39.1371Z" fill="#4B4C51"/>
<path d="M9.39035 4.77604C9.39035 4.30147 9.18841 4.09952 8.71383 4.09952H4.02868C3.55411 4.09952 3.33197 4.31156 3.33197 4.78613V8.6534C3.33197 9.12798 3.13002 9.32992 2.65545 9.32992H0.635992C0.171516 9.32992 -0.0405273 9.53187 -0.0405273 10.0064V14.0454C-0.0405273 14.5199 0.171516 14.7219 0.635992 14.7219H2.63526C3.10983 14.7219 3.31178 14.9238 3.31178 15.3984V28.8682C3.27151 30.3319 3.52105 31.7891 4.04606 33.156C4.57106 34.523 5.36116 35.7726 6.37091 36.833C7.38065 37.8934 8.59011 38.7437 9.92969 39.335C11.2693 39.9262 12.7125 40.2468 14.1765 40.2781C15.1155 40.2781 15.4588 40.2075 15.4588 39.6016V35.5627C15.4588 35.1588 15.2569 35.0175 14.9136 34.8862C12.8941 34.0077 11.4704 33.5331 10.8747 32.796C9.92973 31.7082 9.40347 30.3192 9.39035 28.8783V15.3782C9.39035 14.9036 9.5923 14.7017 10.0669 14.7017H14.7823C15.2569 14.7017 15.4588 14.4997 15.4588 14.0252V9.98625C15.4588 9.51167 15.2569 9.30972 14.7823 9.30972H10.0568C9.5822 9.30972 9.38025 9.10778 9.38025 8.63321" fill="#4B4C51"/>
</g>
<defs>
<clipPath id="clip0_50_339">
<rect width="107.324" height="55" fill="white"/>
</clipPath>
</defs>
</svg>
