<svg width="56" height="55" viewBox="0 0 56 55" fill="none" xmlns="http://www.w3.org/2000/svg">
<path d="M18.8542 35.2613C18.8542 35.135 18.8289 35.0086 18.8289 34.9075C18.8289 32.6329 18.8289 30.333 18.8037 28.0584C18.8037 27.8814 18.8542 27.6793 18.6268 27.5529C18.5762 27.5276 18.5762 27.4012 18.5762 27.3254C18.5762 26.9969 18.5762 26.6683 18.5509 26.365C18.5509 26.1881 18.5509 26.0112 18.374 25.8595C18.2729 25.7584 18.3235 25.4805 18.2982 25.2783C18.2729 25.1519 18.1971 25.0508 18.1466 24.9497C18.1213 24.8992 18.096 24.8233 18.0707 24.7728C17.9696 24.4695 17.9191 24.1662 17.7927 23.863C17.6916 23.6355 17.5147 23.4586 17.3883 23.2564C17.2873 23.1047 17.2367 22.9531 17.1609 22.8014C17.0598 22.574 16.9587 22.3213 16.8576 22.0938C16.7818 21.9422 16.6807 21.8158 16.5796 21.6894C16.3774 21.4872 16.2005 21.3103 16.0994 21.007C16.0236 20.7796 15.7456 20.6279 15.5686 20.4257C15.1137 19.9708 14.6588 19.5159 14.2039 19.0862C14.1533 19.0357 14.1028 19.0104 14.0522 18.9599C13.9259 18.8841 13.749 18.8335 13.6479 18.7324C13.3698 18.4544 12.9655 18.3533 12.6875 18.05C12.5358 17.8731 12.2073 17.8478 11.9798 17.7467C11.7523 17.6456 11.5249 17.494 11.2974 17.3676C11.2721 17.3423 11.2469 17.3171 11.2216 17.3171C10.8678 17.216 10.5392 17.1402 10.1854 17.0391C10.0843 17.0138 9.98318 16.938 9.88209 16.9127C9.70517 16.8622 9.52826 16.8369 9.35135 16.8116C9.17443 16.7863 8.99751 16.8369 8.87114 16.6347C8.84587 16.5841 8.69424 16.5841 8.59314 16.5841C7.02618 16.5841 5.43394 16.5589 3.86698 16.5589C2.70439 16.5589 1.51654 16.5589 0.35396 16.5589C0.101224 16.5589 0.0253906 16.483 0.0253906 16.2303C0.0506642 13.5513 0.0506735 10.8976 0.0506735 8.2186C0.0506735 8.1175 0.151768 7.99112 0.177041 7.89003C0.227589 7.71311 0.252853 7.5362 0.278126 7.35929C0.3034 7.18237 0.252856 6.98018 0.455045 6.87909C0.480318 6.85381 0.505595 6.80326 0.505595 6.77799C0.505595 6.34833 0.733054 5.9945 0.960516 5.64067C1.08688 5.43849 1.16271 5.18576 1.2638 4.9583C1.31435 4.85721 1.41544 4.80666 1.46599 4.70556C1.6429 4.45283 1.79454 4.20009 1.97146 3.97262C2.07255 3.82098 2.2242 3.71989 2.35056 3.59352C2.40111 3.54297 2.45166 3.5177 2.45166 3.46715C2.62858 2.93641 3.03295 2.63314 3.48787 2.38041C3.71534 2.25404 3.86698 1.97601 4.09445 1.82437C4.423 1.59691 4.77683 1.39472 5.13066 1.19253C5.50976 0.990341 5.88887 0.813439 6.2427 0.636523C6.29325 0.61125 6.31852 0.56069 6.36907 0.56069C6.79872 0.459596 7.22837 0.358514 7.63275 0.25742C8.94697 -0.121684 10.3117 0.0299513 11.6512 0.0299513C22.7211 0.00467772 33.7656 0.0299513 44.8355 0.0299513C45.4673 0.0299513 46.0991 0.029939 46.7057 0.0804861C47.1354 0.131033 47.565 0.307955 47.9947 0.434322C48.0452 0.459596 48.121 0.459615 48.1716 0.484888C48.5001 0.611256 48.854 0.762891 49.1825 0.889259C49.4352 0.990354 49.7133 1.09143 49.9407 1.2178C50.244 1.36944 50.5473 1.54637 50.8253 1.77383C51.0275 1.92548 51.1538 2.12765 51.4571 2.22874C51.6846 2.30456 51.8615 2.5573 52.0384 2.73421C52.3417 3.0375 52.645 3.34079 52.923 3.69462C53.1505 3.9979 53.3274 4.35173 53.5296 4.70556C53.5548 4.75611 53.5801 4.80666 53.6054 4.83193C54.0098 5.16049 54.1867 5.59014 54.2878 6.09561C54.3383 6.2978 54.4647 6.49999 54.5405 6.70218C54.5911 6.85382 54.6669 7.00545 54.6922 7.15709C54.7427 7.38455 54.6922 7.61204 54.8943 7.81423C55.0207 7.96587 54.9196 8.26913 54.9702 8.52187C54.9954 8.67351 55.0713 8.82516 55.1218 8.97681C55.1471 9.0779 55.1724 9.17899 55.1724 9.25481C55.1724 10.2405 55.1724 11.2262 55.1724 12.2371C55.1724 21.3356 55.1724 30.4341 55.1724 39.5326C55.1724 40.038 55.1724 40.038 54.6416 40.038C52.5692 40.038 50.4715 40.038 48.399 40.038C47.8683 40.038 47.3628 39.9875 46.9079 39.76C46.4277 39.5326 45.9475 39.2546 45.6695 38.7744C45.3409 38.1931 45.1387 37.5865 45.0377 36.9041C44.7849 35.2613 44.9366 33.6185 44.9113 31.9758C44.8607 30.3077 44.886 28.6649 44.886 26.9969C44.886 26.3903 44.9113 25.7837 44.8102 25.1772C44.6585 24.2673 44.7091 23.3322 44.5827 22.3971C44.5069 21.9674 44.33 21.563 44.2036 21.1334C44.1784 21.0828 44.1783 21.0323 44.1783 20.9818C44.1531 20.5774 43.8498 20.2994 43.774 19.9708C43.6729 19.5412 43.2179 19.3643 43.1674 18.9346C43.1421 18.7324 42.8388 18.5555 42.6619 18.3786C42.4597 18.1764 42.2575 17.9742 42.0301 17.7973C41.929 17.6962 41.7774 17.6456 41.6763 17.5698C41.6004 17.5193 41.5246 17.4434 41.4488 17.3929C41.095 17.1402 40.6906 16.9885 40.2862 16.8116C39.8313 16.6347 39.3258 16.7611 38.972 16.5589C38.4412 16.2556 37.961 16.4578 37.4556 16.3819C37.3798 16.3819 37.2787 16.4325 37.2028 16.4578C37.1017 16.5083 37.0006 16.5589 36.8996 16.5841C36.7226 16.6094 36.4952 16.5589 36.3183 16.6094C36.0403 16.6852 35.7622 16.8369 35.5095 16.938C35.4337 16.9633 35.3326 17.0391 35.2568 17.0644C35.0293 17.0644 34.8271 17.1402 34.6502 17.3171C34.448 17.5193 34.17 17.6457 33.9173 17.7973C33.1085 18.2775 32.5019 19.0104 31.8448 19.6675C31.6679 19.8444 31.491 20.0214 31.3394 20.1983C31.2635 20.2994 31.213 20.4005 31.1372 20.5016C30.9855 20.6785 30.8339 20.8554 30.6823 21.0576C30.379 21.4619 30.0757 21.8663 29.7724 22.2454C29.6208 22.4224 29.4186 22.574 29.2669 22.7762C29.0142 23.0795 28.7867 23.408 28.534 23.686C28.0033 24.3179 27.4472 24.9244 26.9165 25.531C26.7901 25.6826 26.7396 25.8596 26.6132 26.0112C26.4363 26.2387 26.2594 26.4156 26.0825 26.643C25.9308 26.8452 25.8045 27.0474 25.6275 27.2496C25.3495 27.5781 25.0715 27.8562 24.7682 28.1847C24.743 28.21 24.6671 28.2606 24.6671 28.2858C24.6671 28.6649 24.3386 28.8166 24.1364 29.0693C23.9342 29.2968 23.732 29.4737 23.5804 29.7769C23.4287 30.0802 23.1255 30.333 22.8727 30.5857C22.6958 30.7626 22.4936 30.9143 22.4178 31.1923C22.3672 31.3945 22.1398 31.5208 21.9881 31.6978C21.6849 32.0769 21.3816 32.4812 21.053 32.8603C20.9014 33.0373 20.7245 33.1636 20.5728 33.3405C20.4212 33.5427 20.3201 33.7702 20.1432 33.9724C19.9663 34.1746 19.7388 34.3515 19.5871 34.5789C19.385 34.8317 19.208 35.135 19.0059 35.413C18.9048 35.2613 18.8795 35.2613 18.8542 35.2613ZM39.2247 14.6381V14.6128C39.3258 14.6128 39.4016 14.6128 39.5027 14.6128C40.0587 14.6128 40.64 14.6381 41.1708 14.3348C41.3477 14.2337 41.5246 14.1326 41.7015 14.0821C41.929 14.0315 42.1059 13.9557 42.3081 13.8041C42.5861 13.5513 42.9147 13.3238 43.2432 13.0964C43.4707 12.9447 43.5718 12.7173 43.6982 12.4898C43.8245 12.2371 44.1025 12.0349 44.1783 11.7063C44.2794 11.3525 44.5069 11.024 44.5827 10.6701C44.7091 9.98774 44.886 9.30536 44.7849 8.5977C44.7849 8.52188 44.7849 8.44605 44.7596 8.37023C44.6333 7.91531 44.5069 7.46037 44.3553 7.03072C44.2542 6.75271 44.1783 6.44945 44.0267 6.19671C43.8498 5.94398 43.6223 5.71649 43.3949 5.51431C42.9652 5.10993 42.6114 4.62976 42.0554 4.40229C41.8532 4.32647 41.7015 4.20008 41.4993 4.12426C41.1708 3.99789 40.8422 3.79573 40.5137 3.77045C39.5533 3.69463 38.6182 3.56826 37.6578 3.92209C37.0259 4.14955 36.4193 4.37701 35.9139 4.83193C35.7622 4.98357 35.5348 5.08467 35.3579 5.18577C35.3073 5.21104 35.2315 5.26159 35.2315 5.31214C35.181 5.61542 34.9282 5.79232 34.7513 5.99451C34.6502 6.0956 34.5491 6.22198 34.4986 6.34835C34.3722 6.65163 34.2964 6.95491 34.17 7.25819C33.9173 7.78893 33.8414 8.37022 33.7656 8.92624C33.6898 9.55808 33.9425 10.1141 33.9931 10.7207C33.9931 10.8471 33.9931 10.9987 34.0436 11.0998C34.2711 11.5294 34.5491 11.9591 34.8018 12.3887C34.9282 12.6162 35.0799 12.8184 35.2568 13.0206C35.4337 13.2228 35.6106 13.4249 35.8128 13.5513C36.1413 13.7535 36.5205 13.8799 36.8237 14.1073C37.1776 14.3601 37.5819 14.4359 37.961 14.537C38.3401 14.6381 38.7951 14.6128 39.2247 14.6381Z" fill="#4B4C51"/>
<path d="M27.4218 55C21.3562 55 15.2905 55 9.22486 55C8.87103 55 8.54248 54.8737 8.18865 54.8231C7.759 54.722 7.30406 54.6715 6.89969 54.5198C6.39421 54.3429 5.93929 54.0902 5.43382 53.9133C4.9789 53.7363 4.59979 53.4331 4.19541 53.2056C3.5383 52.8518 3.10866 52.2958 2.62846 51.7903C2.47682 51.6387 2.29989 51.5123 2.17352 51.3354C1.99661 51.1079 1.8197 50.8552 1.69333 50.6024C1.46587 50.198 1.13731 49.8442 0.935126 49.3893C0.808758 49.1618 0.783478 48.9344 0.707657 48.7069C0.65711 48.53 0.581289 48.3025 0.454921 48.2014C0.202186 47.9992 0.303283 47.7213 0.252736 47.4938C0.227462 47.3674 0.151648 47.2411 0.101101 47.1147C0.0758269 47.0389 0.0252674 46.963 0.0252674 46.8872C-6.17069e-06 46.5081 0 46.129 0 45.7752C0 39.2546 0 32.7087 0 26.1882C0 25.708 6.17633e-06 25.7079 0.480204 25.7079C2.45154 25.7079 4.39761 25.7079 6.36895 25.7079C6.52059 25.7079 6.64696 25.809 6.7986 25.8596C6.82387 25.8849 6.87441 25.9101 6.89969 25.9101C7.27879 25.8091 7.53153 26.0871 7.83481 26.2134C8.06227 26.2892 8.23919 26.5672 8.44138 26.7442C8.5172 26.82 8.6183 26.8958 8.69412 26.9969C8.87103 27.3002 8.9974 27.654 9.19959 27.9573C9.45233 28.3111 9.35123 28.7155 9.35123 29.0946C9.35123 32.9362 9.35123 36.7525 9.35123 40.5941C9.35123 41.1501 9.30068 41.7567 9.42704 42.2874C9.55341 42.8182 9.52814 43.3236 9.65451 43.8544C9.73033 44.1829 9.80615 44.5368 9.90725 44.8653C9.9578 45.0675 10.0842 45.2444 10.16 45.4213C10.2358 45.5983 10.2863 45.7752 10.3622 45.9774C10.3874 46.0532 10.438 46.129 10.4633 46.2048C10.5896 46.3817 10.716 46.5587 10.8424 46.7356C10.9182 46.8367 10.994 46.9378 11.0951 47.0389C11.4995 47.4685 11.9039 47.9234 12.3588 48.3025C12.6368 48.5553 13.0159 48.7069 13.3444 48.8585C13.6477 49.0102 13.9763 49.1871 14.3048 49.2882C14.5576 49.364 14.8356 49.3893 15.1136 49.3893C15.9224 49.3893 16.7058 49.3893 17.5146 49.3135C17.8937 49.2882 18.2728 49.086 18.6519 48.9344C19.0563 48.7575 19.4607 48.5553 19.865 48.3531C19.9661 48.3025 20.042 48.1762 20.1431 48.1256C20.7243 47.8476 21.1287 47.3674 21.5836 46.9125C21.9122 46.5839 22.266 46.2806 22.5946 45.9521C22.7968 45.7246 22.9484 45.4213 23.1506 45.1686C23.3275 44.9411 23.555 44.739 23.7572 44.5368C23.8077 44.4862 23.833 44.4357 23.8583 44.3599C23.9594 44.1829 24.0605 43.9808 24.1868 43.8291C24.4143 43.5511 24.7681 43.3742 24.8692 42.9445C24.9198 42.7171 25.223 42.5402 25.4 42.3632C25.6021 42.1611 25.9054 42.0094 25.956 41.7819C26.0571 41.4281 26.3351 41.2512 26.512 40.9732C26.6384 40.7963 26.8406 40.6952 26.9669 40.5183C27.1944 40.215 27.3966 39.8864 27.6493 39.5831C28.0537 39.103 28.4075 38.5722 28.8624 38.1426C29.2415 37.7887 29.4185 37.2832 29.8228 36.9547C29.9492 36.8536 30.0756 36.702 30.2019 36.5756C30.2272 36.5503 30.2778 36.4998 30.303 36.4745C30.4041 35.9437 30.8843 35.7416 31.1876 35.3625C31.3393 35.1856 31.5162 35.0592 31.592 34.8064C31.6678 34.579 31.9205 34.3768 32.1227 34.1746C32.2996 33.9977 32.5018 33.846 32.5777 33.5428C32.6535 33.3153 32.9062 33.1384 33.0831 32.9615C33.26 32.7846 33.4622 32.6076 33.6644 32.4307C33.6897 32.4054 33.6897 32.4055 33.715 32.3802C33.7908 31.8242 34.3215 31.622 34.6248 31.2176C34.7512 31.0407 34.8523 30.8638 34.9534 30.6869C35.0292 30.5858 35.105 30.5099 35.1808 30.4088C35.2314 30.3583 35.2819 30.333 35.3325 30.3078C35.3577 30.3836 35.4336 30.4341 35.4336 30.5099C35.5094 31.5714 35.5852 32.6076 35.6105 33.6691C35.6358 34.9075 35.6105 36.1459 35.6358 37.4096C35.6358 37.8393 35.6105 38.2942 35.7116 38.6986C35.8379 39.1282 35.8379 39.5831 35.939 40.0128C36.0654 40.493 36.217 40.9732 36.394 41.4281C36.5456 41.8325 36.7983 42.1863 37.0005 42.5654C37.1016 42.7676 37.2027 42.9698 37.3038 43.172C37.3796 43.3236 37.4554 43.5006 37.5565 43.6269C37.8598 44.006 38.2137 44.3599 38.4411 44.7642C38.5928 45.0675 38.7697 45.3455 39.0224 45.5477C39.3763 45.851 39.6037 46.2806 40.1092 46.4323C40.2355 46.4576 40.3366 46.6345 40.463 46.7356C41.019 47.1905 41.6256 47.6202 42.308 47.8982C42.6871 48.0498 43.0662 48.3025 43.42 48.4794C43.4453 48.4794 43.4453 48.5047 43.4706 48.5047C43.8497 48.6058 44.254 48.6816 44.6079 48.8333C45.0123 49.0102 45.4925 48.9596 45.8716 49.1113C46.5034 49.3387 47.11 49.3135 47.7418 49.3135C49.6879 49.3135 51.6339 49.3135 53.6053 49.3135C53.7064 49.3135 53.8327 49.364 53.9338 49.3893C53.8833 49.5157 53.858 49.642 53.7822 49.7684C53.58 50.1222 53.4031 50.5013 53.1756 50.8299C52.9734 51.1332 52.6954 51.3859 52.4427 51.6386C51.9878 52.0936 51.5328 52.5232 51.0779 52.9529C51.0779 52.9529 51.0779 52.9781 51.0526 52.9781C50.6988 53.1803 50.345 53.4078 49.9911 53.61C49.7637 53.7364 49.5362 53.8627 49.3088 53.9891C49.1066 54.0902 48.8791 54.1913 48.6769 54.2924C48.3231 54.4693 47.944 54.4693 47.5902 54.5957C47.1858 54.7473 46.7561 54.6715 46.4023 54.8231C45.9474 55.0506 45.4672 54.9748 45.0122 54.9748C39.174 55 33.3106 55 27.4218 55Z" fill="#4B4C51"/>
</svg>
